<?xml version="1.0" encoding="UTF-8" standalone="no"?>
<!DOCTYPE svg PUBLIC "-//W3C//DTD SVG 1.1//EN" "http://www.w3.org/Graphics/SVG/1.1/DTD/svg11.dtd">
<svg width="100%" height="100%" viewBox="0 0 960 323" version="1.1" xmlns="http://www.w3.org/2000/svg" xmlns:xlink="http://www.w3.org/1999/xlink" xml:space="preserve" xmlns:serif="http://www.serif.com/" style="fill-rule:evenodd;clip-rule:evenodd;stroke-linejoin:round;stroke-miterlimit:2;">
    <g transform="matrix(1,0,0,1,-1305.341651,-134.372375)">
        <g transform="matrix(0.169023,-0.063913,0.063913,0.169023,1942.397701,112.983057)">
            <ellipse cx="1031.5" cy="902.5" rx="522.5" ry="331.5" style="fill:rgb(255,0,177);"/>
        </g>
        <g transform="matrix(3.073818,0,0,4.208227,1196.42162,-173.482996)">
            <path d="M35.435,125.257C37.981,126.272 40.745,127.117 43.726,127.794C46.707,128.47 49.789,128.999 52.972,129.379C56.156,129.76 59.324,130.035 62.479,130.204C65.633,130.373 68.657,130.457 71.551,130.457C74.966,130.457 78.251,130.362 81.405,130.172C84.56,129.982 87.352,129.675 89.783,129.252C92.214,128.83 94.153,128.291 95.6,127.635C97.047,126.98 97.771,126.187 97.771,125.257C97.771,124.2 96.917,123.302 95.21,122.562C93.502,121.822 91.259,121.146 88.481,120.533C85.703,119.92 82.548,119.339 79.018,118.789C75.487,118.239 71.87,117.637 68.165,116.982C64.461,116.326 60.844,115.608 57.313,114.826C53.782,114.043 50.628,113.092 47.85,111.972C45.072,110.851 42.829,109.551 41.121,108.072C39.414,106.592 38.56,104.838 38.56,102.808C38.56,100.399 39.645,98.137 41.816,96.023C43.986,93.909 46.938,92.07 50.671,90.506C54.405,88.942 58.775,87.705 63.781,86.796C68.788,85.887 74.127,85.433 79.799,85.433C83.793,85.433 87.541,85.559 91.042,85.813C94.544,86.067 97.901,86.437 101.113,86.923C104.326,87.409 107.422,88.011 110.403,88.73C113.384,89.449 116.379,90.294 119.389,91.267L123.295,110.672C117.681,108.347 111.85,106.56 105.801,105.313C99.753,104.066 93.488,103.442 87.005,103.442C84.343,103.442 81.868,103.58 79.582,103.855C77.296,104.129 75.299,104.499 73.592,104.964C71.884,105.429 70.539,105.979 69.555,106.613C68.571,107.247 68.079,107.945 68.079,108.706C68.079,109.805 68.874,110.788 70.466,111.655C72.058,112.521 74.142,113.325 76.717,114.065C79.293,114.804 82.23,115.523 85.529,116.221C88.828,116.918 92.214,117.647 95.687,118.408C99.16,119.169 102.546,119.994 105.845,120.882C109.144,121.769 112.081,122.784 114.657,123.926C117.233,125.067 119.316,126.357 120.908,127.794C122.5,129.231 123.295,130.88 123.295,132.74C123.295,135.108 122.181,137.327 119.953,139.399C117.725,141.47 114.498,143.278 110.273,144.821C106.047,146.364 100.882,147.59 94.775,148.499C88.669,149.408 81.709,149.862 73.896,149.862C66.082,149.862 59.151,149.387 53.102,148.436C47.054,147.484 41.57,146.311 36.65,144.916L35.435,125.257ZM125.553,103.823L153.074,103.823L161.496,141.935L162.885,141.935L171.219,103.823L198.741,103.823L182.766,149.038L141.527,149.038L125.553,103.823ZM199.349,126.399C199.349,122.425 200.492,119.021 202.778,116.189C205.064,113.356 208.248,111.031 212.328,109.213C216.409,107.395 221.256,106.053 226.87,105.186C232.485,104.32 238.649,103.886 245.363,103.886C252.135,103.886 258.357,104.32 264.029,105.186C269.701,106.053 274.606,107.395 278.745,109.213C282.883,111.031 286.11,113.356 288.425,116.189C290.74,119.021 291.898,122.425 291.898,126.399C291.898,130.331 290.74,133.744 288.425,136.64C286.11,139.536 282.883,141.935 278.745,143.838C274.606,145.74 269.701,147.146 264.029,148.055C258.357,148.964 252.135,149.418 245.363,149.418C238.649,149.418 232.485,148.964 226.87,148.055C221.256,147.146 216.409,145.74 212.328,143.838C208.248,141.935 205.064,139.536 202.778,136.64C200.492,133.744 199.349,130.331 199.349,126.399ZM245.365,106.589C232.29,106.997 222.189,116.122 222.823,126.953C223.457,137.784 234.586,146.247 247.661,145.838C260.736,145.43 270.836,136.305 270.203,125.474C269.569,114.643 258.439,106.181 245.365,106.589ZM320.722,107.863L320.722,149.038L295.284,149.038L295.284,107.863L320.722,107.863Z" style="fill:rgb(3,178,255);"/>
        </g>
    </g>
</svg>
